<?xml version="1.0" encoding="utf-8"?>
<!-- Generator: Adobe Illustrator 19.0.0, SVG Export Plug-In . SVG Version: 6.00 Build 0)  -->
<svg version="1.0" id="dwnld" xmlns="http://www.w3.org/2000/svg" xmlns:xlink="http://www.w3.org/1999/xlink" x="0px" y="0px"
	 viewBox="0 0 61 61" style="enable-background:new 0 0 61 61;" xml:space="preserve">
<path d="M30.6,43c-0.1,0-0.3-0.1-0.4-0.1l-5-5l0.7-0.7l4.6,4.6l4.6-4.6l0.7,0.7l-5,5C30.9,42.9,30.7,43,30.6,43z"/>
<g>
	<path d="M25.1,37h1v1h-1V37z"/>
	<path d="M35.1,37h1v1h-1V37z"/>
	<path d="M30.1,42h1v1h-1V42z"/>
	<path d="M21.5,30.6v-6.5h2.3v-1.5h-6.4v1.5h2.3v6.5H21.5z"/>
	<path d="M34.5,30.6l-2.9-4.1l2.7-3.9h-2.1l-1.8,2.7l-1.8-2.7h-2l2.7,3.9l-2.9,4.1h2l2-2.9l2,2.9H34.5z"/>
	<path d="M41.3,30.6v-6.5h2.3v-1.5h-6.4v1.5h2.3v6.5H41.3z"/>
</g>
</svg>
