<?xml version="1.0" encoding="utf-8"?>
<!-- Generator: Adobe Illustrator 19.0.0, SVG Export Plug-In . SVG Version: 6.00 Build 0)  -->
<svg version="1.0" id="gnrt" xmlns="http://www.w3.org/2000/svg" xmlns:xlink="http://www.w3.org/1999/xlink" x="0px" y="0px"
	 viewBox="-4 -26 61 61" style="enable-background:new -4 -26 61 61;" xml:space="preserve">
<path d="M26,5h12.5V-7.5h-1V3.3L26.9-7.4c-0.2-0.2-0.5-0.2-0.7,0L14.6,4.1c-0.2,0.2-0.2,0.5,0,0.7l11.5,11.5
	c0.1,0.1,0.2,0.1,0.4,0.1s0.3,0,0.4-0.1l5.5-5.5l-0.7-0.7l-5.1,5.1L15.7,4.5L26.5-6.3L36.8,4H26V5z"/>
<path d="M26,4h1v1h-1V4z"/>
<path d="M37.5,4h1v1h-1V4z"/>
<path d="M37.5-7.5h1v1h-1V-7.5z"/>
<path d="M26-7.5h1v1h-1V-7.5z"/>
<path d="M14.5,4h1v1h-1V4z"/>
<path d="M26,15.5h1v1h-1V15.5z"/>
<path d="M31.5,10h1v1h-1V10z"/>
</svg>
