<?xml version="1.0" encoding="utf-8"?>
<!-- Generator: Adobe Illustrator 19.0.0, SVG Export Plug-In . SVG Version: 6.00 Build 0)  -->
<svg version="1.0" id="Layer_1" xmlns="http://www.w3.org/2000/svg" xmlns:xlink="http://www.w3.org/1999/xlink" x="0px" y="0px"
	 viewBox="0 0 361 61" style="enable-background:new 0 0 361 61;" xml:space="preserve">
<style type="text/css">
	.st0{opacity:0.2;}
	.st1{opacity:0.1;}
</style>
<path d="M36.5,31.8l-4.3-5.9h-1.5v8.5h1.5v-6.1l4.4,6.1H38v-8.5h-1.5V31.8z"/>
<path d="M48.9,25.7c-2.5,0-4.3,1.9-4.3,4.4c0,2.5,1.8,4.4,4.3,4.4c2.5,0,4.3-1.9,4.3-4.4C53.3,27.6,51.5,25.7,48.9,25.7z M48.9,33.2
	c-1.7,0-2.8-1.3-2.8-3.1c0-1.8,1.1-3.1,2.8-3.1c1.7,0,2.8,1.3,2.8,3.1C51.7,31.9,50.6,33.2,48.9,33.2z"/>
<path d="M63,25.8h-3.2v8.5H63c2.6,0,4.4-1.8,4.4-4.3C67.4,27.6,65.6,25.8,63,25.8z M63,33.1h-1.7v-5.9H63c1.9,0,2.9,1.3,2.9,3
	C65.9,31.7,64.8,33.1,63,33.1z"/>
<path d="M73.9,34.4h1.5v-8.5h-1.5V34.4z"/>
<path d="M86.3,25.7c-2.5,0-4.3,1.9-4.3,4.4c0,2.5,1.8,4.4,4.3,4.4c2.5,0,4.3-1.9,4.3-4.4C90.6,27.6,88.9,25.7,86.3,25.7z M86.3,33.2
	c-1.7,0-2.8-1.3-2.8-3.1c0-1.8,1.1-3.1,2.8-3.1c1.7,0,2.8,1.3,2.8,3.1C89.1,31.9,88,33.2,86.3,33.2z"/>
<path d="M275.3,34.4c1.7,0,2.7-0.9,3.3-1.9l-1.2-0.6c-0.4,0.7-1.2,1.2-2.1,1.2c-1.6,0-2.9-1.3-2.9-3c0-1.7,1.2-3,2.9-3
	c0.9,0,1.7,0.5,2.1,1.2l1.2-0.6c-0.6-1-1.7-1.9-3.3-1.9c-2.5,0-4.4,1.7-4.4,4.3C270.9,32.7,272.8,34.4,275.3,34.4z"/>
<path d="M291.2,34.3l-2-3.3c1-0.2,2-1,2-2.4c0-1.5-1.1-2.6-2.7-2.6h-3.7v8.3h1.5v-3.1h1.4l1.8,3.1H291.2z M288.3,29.9h-2v-2.6h2
	c0.8,0,1.4,0.5,1.4,1.3C289.7,29.3,289.1,29.9,288.3,29.9z"/>
<path d="M301.5,34.4c2.5,0,4.3-1.8,4.3-4.3s-1.8-4.3-4.3-4.3c-2.5,0-4.3,1.8-4.3,4.3S299,34.4,301.5,34.4z M301.5,33.1
	c-1.7,0-2.8-1.3-2.8-3c0-1.7,1.1-3,2.8-3c1.7,0,2.8,1.3,2.8,3C304.3,31.8,303.2,33.1,301.5,33.1z"/>
<path d="M319.9,34.3l2.4-8.3h-1.6l-1.6,6.4l-1.7-6.4h-1.2l-1.7,6.4l-1.6-6.4h-1.6l2.4,8.3h1.6l1.6-6.1l1.6,6.1H319.9z"/>
<path d="M331.3,34.3c2.6,0,4.4-1.7,4.4-4.2s-1.8-4.2-4.4-4.2h-3.1v8.3H331.3z M331.3,33h-1.6v-5.8h1.6c1.9,0,2.9,1.3,2.9,2.9
	C334.2,31.7,333.2,33,331.3,33z"/>
<path d="M150,30.5L180.5,61L211,30.5L180.5,0L150,30.5z M180.5,2l18.7,18.7l-11.4,11.4l-14.9-14.9v10.5L161,39.5l-9-9L180.5,2z
	 M180.5,59L162,40.5l11.4-11.4l14.8,14.7V33.7l12-12l8.8,8.8L180.5,59z"/>
<path class="st0" d="M155,51.7l-21-21.2l21-21.2l0.9,1l-0.9,0.9l-19,19.2l2.9,2.9l1,1L155,49.7l1.1,1.1L155,51.7z"/>
<path class="st1" d="M132,42.7l-12-12.2l12-12.2l0.9,1l-0.9,0.9l-10,10.2l2.9,2.9l1,1l6.2,6.3l1.1,1.1L132,42.7z"/>
<path class="st0" d="M206.1,9.4l21,21.3l-21,21.3l-0.9-1l0.9-0.9l19-19.3l-2.9-3l-1-1l-15.1-15.3l-1.1-1.1L206.1,9.4z"/>
<path class="st1" d="M229.1,18.4l12,12.2l-12,12.2l-0.9-1l0.9-0.9l10-10.2l-2.9-3l-1-1l-6.2-6.3l-1.1-1.1L229.1,18.4z"/>
</svg>
